<svg width="121" height="113" viewBox="0 0 121 113" fill="none" xmlns="http://www.w3.org/2000/svg">
<rect x="3" y="38" width="117" height="74" rx="11" fill="#D9A729" stroke="black" stroke-width="2"/>
<rect x="1.14463" y="20.5176" width="117" height="17" rx="2" transform="rotate(-9.03476 1.14463 20.5176)" fill="#D9A729" stroke="black" stroke-width="2"/>
<path d="M98.9281 77.8798L76.8701 90.5258C74.8588 91.6789 72.3554 90.2121 72.3781 87.8938L72.63 62.1722C72.6527 59.8539 75.1843 58.4364 77.1727 59.6287L98.9788 72.7043C100.944 73.8827 100.916 76.7401 98.9281 77.8798Z" fill="#DE2929" stroke="black" stroke-width="2"/>
<path d="M32.948 58.848H38.58L42.144 69.188L45.752 58.848H51.34L45.972 73.06L49.932 83.004L58.776 58.76H65.376L52.88 90H47.644L42.144 76.888L36.688 90H31.452L19 58.76H25.512L34.4 83.004L38.272 73.06L32.948 58.848Z" fill="black"/>
<path d="M79.0095 8.57417L97.5566 5.42582L110.123 19.4258L91.5756 22.5742L79.0095 8.57417Z" fill="black"/>
<path d="M43.9905 14.5742L62.5376 11.4258L75.1037 25.4258L56.5566 28.5742L43.9905 14.5742Z" fill="black"/>
<path d="M8.87578 20.2452L26.8176 17.2547L39.008 30.7547L21.0661 33.7453L8.87578 20.2452Z" fill="black"/>
</svg>
